<?xml version="1.0" encoding="UTF-8"?>
<svg id="Layer_2" data-name="Layer 2" xmlns="http://www.w3.org/2000/svg" viewBox="0 0 175.1 141.81">
  <defs>
    <style>
      .cls-1 {
        fill: #f9c710;
      }

      .cls-2 {
        fill: #8d1e77;
      }

      .cls-3 {
        fill: #a82f88;
      }

      .cls-4 {
        opacity: .43;
      }
    </style>
  </defs>
  <g id="Livello_1" data-name="Livello 1">
    <g>
      <path class="cls-1" d="M122.1.61c.2,1.8.4,3.6.2,5.4l-10.7-.4c0,.2-.7,3.5-1.2,6.4-.1.6-.2-.7,0,0,5.4,18.8,23.9,70.3,23.8,70.3h-3.8l-22.7-58.9s-17.9,61.6-18.8,61.9c0,0-20.3-1.9-27.4-3.1v-.2c.3-4,19.9-73.8,19.9-74.8h4.6c.2,1.1-.7,4.3.9,4.6.9.2,20.8.4,20.8.4l.1-.1c.1-1.8.4-6.6.1-6.8l-18.5-1.1c-.1-1.4-.2-2.8.2-4.2,0-.1,32.5.6,32.5.6M85.6,15.61c-.3,0-1.3.2-1.5.3-.3.2-.2.7-.3,1-.3,1.1-17.4,61.7-17.4,61.7.9.1,19.6,2,20.5,2,.3-.9,18-61.3,18.4-63.7,0-.1-.2-.2-.3-.2-1-.4-10.5-.8-13.7-.9l-5.7-.2Z"/>
      <path class="cls-2" d="M85.5,4.81s2.6.1,3.8.3c.1.3.1,2.5.1,3.3,0,.1,0,.6-.1.6-.4,0-3.9.3-5.1.3,0,0-8.1.3-9.1.4-.7.1-1.6.2-1.7-.8l-.2-.9v-.7c0-.2.1-.5.1-.8s.2-1,.5-1.1c3.3-.2,6.7-.6,10-.7h1.7v.1Z"/>
      <g class="cls-4">
        <path class="cls-3" d="M86.5,36.61c-5.7-14-17.3-23-31.9-24.8l-2.9-.3h-5.2l-.2.1c-5,.5-13.5,2.7-17,6.8C12.1,38.81.9,67.61,0,93.71v7.1l.1.1c.5,15,7.8,27,19.9,32.2,4.2,1.8,9,2.7,13.9,2.7,9.5,0,19.5-3.3,27.4-9.5,13.3-10.6,19.2-26.7,23.5-42.5,4.4-16.2,7.9-32,1.7-47.2ZM69.6,38.31c6.8,10.9,4.4,23.5,1.4,35.4-5.2,20.3-11.8,40.5-30.1,45.1-7.5,1.9-17.2,1.2-21.8-6.4-3.7-6-3.6-14.7-3.1-21.5,1.4-19.9,9.6-41.8,21.3-57.2l.4-.6c.9-1.1,2.3-3.1,3.1-3.7,1.1-.9,5.4-1.8,8.3-2,8.2-.2,16.2,4.1,20.5,10.9Z"/>
        <path class="cls-3" d="M175.1,57.71h0c-.7-13.6-6.3-25.9-15.2-33s-21.5-9.3-31.4-5.3c-.6.2-5.4,2.2-7.5,4.9-12.2,15.9-21.5,38.7-24.7,61.1-2.4,16.9-3.4,37.8,10.4,49.7,5.4,4.7,11.9,6.7,18.4,6.7,9.5,0,19.1-4.2,25.8-10.7,12-11.6,16.9-29.6,20.6-45.6,1.5-6.7,3.2-14.5,3.5-22.2.1-1.9.1-3.9.1-5.6ZM138,33.51c6-.4,12.1,2.3,15.9,6.9,10.3,12.7,5.7,31.3,2.3,44.9-3.7,14.9-8.2,30-19.5,37.1-5.4,3.4-14.2,4.8-19.9.8-7.9-5.5-7.6-19.6-6.3-31.3,2-18.8,9.9-40.6,19.7-54.3l.4-.6c1-1.4,1.3-1.8,2.5-2.3,1.5-.7,3.2-1.1,4.9-1.2h0Z"/>
      </g>
    </g>
  </g>
</svg>